<mxfile host="app.diagrams.net" agent="Mozilla/5.0 (Windows NT 10.0; Win64; x64) AppleWebKit/537.36 (KHTML, like Gecko) Chrome/127.0.0.0 Safari/537.36" version="24.7.7">
  <diagram id="C5RBs43oDa-KdzZeNtuy" name="Page-1">
    <mxGraphModel dx="1434" dy="772" grid="1" gridSize="10" guides="1" tooltips="1" connect="1" arrows="1" fold="1" page="1" pageScale="1" pageWidth="827" pageHeight="1169" math="0" shadow="0">
      <root>
        <mxCell id="WIyWlLk6GJQsqaUBKTNV-0" />
        <mxCell id="WIyWlLk6GJQsqaUBKTNV-1" parent="WIyWlLk6GJQsqaUBKTNV-0" />
        <mxCell id="zkfFHV4jXpPFQw0GAbJ--6" value="Participante&#xa;" style="swimlane;fontStyle=0;align=center;verticalAlign=top;childLayout=stackLayout;horizontal=1;startSize=26;horizontalStack=0;resizeParent=1;resizeLast=0;collapsible=1;marginBottom=0;rounded=0;shadow=0;strokeWidth=1;" parent="WIyWlLk6GJQsqaUBKTNV-1" vertex="1">
          <mxGeometry x="20" y="1290" width="250" height="544" as="geometry">
            <mxRectangle x="130" y="380" width="160" height="26" as="alternateBounds" />
          </mxGeometry>
        </mxCell>
        <mxCell id="zkfFHV4jXpPFQw0GAbJ--7" value="- id: int" style="text;align=left;verticalAlign=top;spacingLeft=4;spacingRight=4;overflow=hidden;rotatable=0;points=[[0,0.5],[1,0.5]];portConstraint=eastwest;" parent="zkfFHV4jXpPFQw0GAbJ--6" vertex="1">
          <mxGeometry y="26" width="250" height="26" as="geometry" />
        </mxCell>
        <mxCell id="zkfFHV4jXpPFQw0GAbJ--8" value="- nombre: String" style="text;align=left;verticalAlign=top;spacingLeft=4;spacingRight=4;overflow=hidden;rotatable=0;points=[[0,0.5],[1,0.5]];portConstraint=eastwest;rounded=0;shadow=0;html=0;" parent="zkfFHV4jXpPFQw0GAbJ--6" vertex="1">
          <mxGeometry y="52" width="250" height="26" as="geometry" />
        </mxCell>
        <mxCell id="UiVOCkL088q7P05zx3Yd-7" value="&lt;font style=&quot;vertical-align: inherit;&quot;&gt;&lt;font style=&quot;vertical-align: inherit;&quot;&gt;- apellido: String&lt;/font&gt;&lt;/font&gt;" style="text;strokeColor=none;fillColor=none;spacingLeft=4;spacingRight=4;overflow=hidden;rotatable=0;points=[[0,0.5],[1,0.5]];portConstraint=eastwest;fontSize=12;whiteSpace=wrap;html=1;" parent="zkfFHV4jXpPFQw0GAbJ--6" vertex="1">
          <mxGeometry y="78" width="250" height="30" as="geometry" />
        </mxCell>
        <mxCell id="UiVOCkL088q7P05zx3Yd-8" value="&lt;font style=&quot;vertical-align: inherit;&quot;&gt;&lt;font style=&quot;vertical-align: inherit;&quot;&gt;- interesesCulinarios: List&amp;lt;String&amp;gt;&lt;/font&gt;&lt;/font&gt;" style="text;strokeColor=none;fillColor=none;spacingLeft=4;spacingRight=4;overflow=hidden;rotatable=0;points=[[0,0.5],[1,0.5]];portConstraint=eastwest;fontSize=12;whiteSpace=wrap;html=1;" parent="zkfFHV4jXpPFQw0GAbJ--6" vertex="1">
          <mxGeometry y="108" width="250" height="62" as="geometry" />
        </mxCell>
        <mxCell id="UiVOCkL088q7P05zx3Yd-9" value="&lt;font style=&quot;vertical-align: inherit;&quot;&gt;&lt;font style=&quot;vertical-align: inherit;&quot;&gt;- historialEventos: List&amp;lt;EventoGastronomico&amp;gt;&lt;/font&gt;&lt;/font&gt;" style="text;strokeColor=none;fillColor=none;spacingLeft=4;spacingRight=4;overflow=hidden;rotatable=0;points=[[0,0.5],[1,0.5]];portConstraint=eastwest;fontSize=12;whiteSpace=wrap;html=1;" parent="zkfFHV4jXpPFQw0GAbJ--6" vertex="1">
          <mxGeometry y="170" width="250" height="62" as="geometry" />
        </mxCell>
        <mxCell id="zkfFHV4jXpPFQw0GAbJ--9" value="" style="line;html=1;strokeWidth=1;align=left;verticalAlign=middle;spacingTop=-1;spacingLeft=3;spacingRight=3;rotatable=0;labelPosition=right;points=[];portConstraint=eastwest;" parent="zkfFHV4jXpPFQw0GAbJ--6" vertex="1">
          <mxGeometry y="232" width="250" height="60" as="geometry" />
        </mxCell>
        <mxCell id="hxbj6WoGS98LnYiO9XEM-17" value="&lt;span class=&quot;hljs-addition&quot;&gt;+&amp;nbsp;agregarEventoAlHistorial(evento: Evento): void&lt;/span&gt;&lt;br&gt;&lt;span class=&quot;hljs-addition&quot;&gt;+&amp;nbsp;getId(): int&lt;/span&gt;&lt;br&gt;&lt;span class=&quot;hljs-addition&quot;&gt;+&amp;nbsp;getNombre(): String&lt;/span&gt;&lt;br&gt;&lt;span class=&quot;hljs-addition&quot;&gt;+&amp;nbsp;getApellido(): String&lt;/span&gt;&lt;br&gt;&lt;span class=&quot;hljs-addition&quot;&gt;+&amp;nbsp;getInteresesCulinaros(): String&lt;/span&gt;&lt;br&gt;&lt;span class=&quot;hljs-addition&quot;&gt;+&amp;nbsp;getHistorialEventos(): List&amp;lt;Evento&amp;gt;&lt;/span&gt;&lt;br&gt;&lt;span class=&quot;hljs-addition&quot;&gt;+&amp;nbsp;setId(id: int): void&lt;/span&gt;&lt;br&gt;&lt;span class=&quot;hljs-addition&quot;&gt;+&amp;nbsp;setNombre(nombre: String): void&lt;/span&gt;&lt;br&gt;&lt;span class=&quot;hljs-addition&quot;&gt;+&amp;nbsp;setApellido(apellido: String): void&lt;/span&gt;&lt;br&gt;&lt;span class=&quot;hljs-addition&quot;&gt;+&amp;nbsp;setInteresesCulinaros(interesesCulinaros: String): void&lt;/span&gt;&lt;div&gt;+&amp;nbsp;setHistorialEventos(historialEventos: List&amp;lt;Evento&amp;gt;): void&lt;/div&gt;&lt;div&gt;+&amp;nbsp;toString(): String&lt;br&gt;&lt;div&gt;&lt;span class=&quot;hljs-addition&quot;&gt;&lt;br&gt;&lt;/span&gt;&lt;/div&gt;&lt;/div&gt;" style="text;whiteSpace=wrap;html=1;" parent="zkfFHV4jXpPFQw0GAbJ--6" vertex="1">
          <mxGeometry y="292" width="250" height="252" as="geometry" />
        </mxCell>
        <mxCell id="zkfFHV4jXpPFQw0GAbJ--13" value="Reseña" style="swimlane;fontStyle=0;align=center;verticalAlign=top;childLayout=stackLayout;horizontal=1;startSize=26;horizontalStack=0;resizeParent=1;resizeLast=0;collapsible=1;marginBottom=0;rounded=0;shadow=0;strokeWidth=1;" parent="WIyWlLk6GJQsqaUBKTNV-1" vertex="1">
          <mxGeometry x="570" y="600" width="250" height="462" as="geometry">
            <mxRectangle x="340" y="380" width="170" height="26" as="alternateBounds" />
          </mxGeometry>
        </mxCell>
        <mxCell id="zkfFHV4jXpPFQw0GAbJ--14" value="- id: int" style="text;align=left;verticalAlign=top;spacingLeft=4;spacingRight=4;overflow=hidden;rotatable=0;points=[[0,0.5],[1,0.5]];portConstraint=eastwest;" parent="zkfFHV4jXpPFQw0GAbJ--13" vertex="1">
          <mxGeometry y="26" width="250" height="26" as="geometry" />
        </mxCell>
        <mxCell id="UiVOCkL088q7P05zx3Yd-10" value="&lt;font style=&quot;vertical-align: inherit;&quot;&gt;&lt;font style=&quot;vertical-align: inherit;&quot;&gt;- evento: EventoGastronomico&lt;/font&gt;&lt;/font&gt;" style="text;strokeColor=none;fillColor=none;spacingLeft=4;spacingRight=4;overflow=hidden;rotatable=0;points=[[0,0.5],[1,0.5]];portConstraint=eastwest;fontSize=12;whiteSpace=wrap;html=1;" parent="zkfFHV4jXpPFQw0GAbJ--13" vertex="1">
          <mxGeometry y="52" width="250" height="48" as="geometry" />
        </mxCell>
        <mxCell id="UiVOCkL088q7P05zx3Yd-11" value="&lt;font style=&quot;vertical-align: inherit;&quot;&gt;&lt;font style=&quot;vertical-align: inherit;&quot;&gt;- participante: Participante&lt;/font&gt;&lt;/font&gt;" style="text;strokeColor=none;fillColor=none;spacingLeft=4;spacingRight=4;overflow=hidden;rotatable=0;points=[[0,0.5],[1,0.5]];portConstraint=eastwest;fontSize=12;whiteSpace=wrap;html=1;" parent="zkfFHV4jXpPFQw0GAbJ--13" vertex="1">
          <mxGeometry y="100" width="250" height="30" as="geometry" />
        </mxCell>
        <mxCell id="UiVOCkL088q7P05zx3Yd-12" value="&lt;font style=&quot;vertical-align: inherit;&quot;&gt;&lt;font style=&quot;vertical-align: inherit;&quot;&gt;- calificación: int&lt;/font&gt;&lt;/font&gt;" style="text;strokeColor=none;fillColor=none;spacingLeft=4;spacingRight=4;overflow=hidden;rotatable=0;points=[[0,0.5],[1,0.5]];portConstraint=eastwest;fontSize=12;whiteSpace=wrap;html=1;" parent="zkfFHV4jXpPFQw0GAbJ--13" vertex="1">
          <mxGeometry y="130" width="250" height="30" as="geometry" />
        </mxCell>
        <mxCell id="UiVOCkL088q7P05zx3Yd-13" value="&lt;font style=&quot;vertical-align: inherit;&quot;&gt;&lt;font style=&quot;vertical-align: inherit;&quot;&gt;- comentario: String&lt;/font&gt;&lt;/font&gt;" style="text;strokeColor=none;fillColor=none;spacingLeft=4;spacingRight=4;overflow=hidden;rotatable=0;points=[[0,0.5],[1,0.5]];portConstraint=eastwest;fontSize=12;whiteSpace=wrap;html=1;" parent="zkfFHV4jXpPFQw0GAbJ--13" vertex="1">
          <mxGeometry y="160" width="250" height="30" as="geometry" />
        </mxCell>
        <mxCell id="zkfFHV4jXpPFQw0GAbJ--15" value="" style="line;html=1;strokeWidth=1;align=left;verticalAlign=middle;spacingTop=-1;spacingLeft=3;spacingRight=3;rotatable=0;labelPosition=right;points=[];portConstraint=eastwest;" parent="zkfFHV4jXpPFQw0GAbJ--13" vertex="1">
          <mxGeometry y="190" width="250" height="20" as="geometry" />
        </mxCell>
        <mxCell id="hxbj6WoGS98LnYiO9XEM-34" value="&lt;span class=&quot;hljs-addition&quot;&gt;+&amp;nbsp;getId(): int&lt;/span&gt;&lt;br&gt;&lt;span class=&quot;hljs-addition&quot;&gt;+&amp;nbsp;getEvento(): Evento&lt;/span&gt;&lt;br&gt;&lt;span class=&quot;hljs-addition&quot;&gt;+&amp;nbsp;getParticipante(): Participante&lt;/span&gt;&lt;br&gt;&lt;span class=&quot;hljs-addition&quot;&gt;+&amp;nbsp;getCalificacion(): int&lt;/span&gt;&lt;br&gt;&lt;span class=&quot;hljs-addition&quot;&gt;+&amp;nbsp;getComentario(): String&lt;/span&gt;&lt;br&gt;&lt;span class=&quot;hljs-addition&quot;&gt;+&amp;nbsp;setId(id: int): void&lt;/span&gt;&lt;br&gt;&lt;span class=&quot;hljs-addition&quot;&gt;+&amp;nbsp;setEvento(evento: Evento): void&lt;/span&gt;&lt;br&gt;&lt;span class=&quot;hljs-addition&quot;&gt;+&amp;nbsp;setParticipante(participante: Participante): void&lt;/span&gt;&lt;br&gt;&lt;span class=&quot;hljs-addition&quot;&gt;+&amp;nbsp;setCalificacion(calificacion: int): void&lt;/span&gt;&lt;br&gt;&lt;span class=&quot;hljs-addition&quot;&gt;+&amp;nbsp;setComentario(comentario: String): void&lt;/span&gt;&lt;div&gt;+&amp;nbsp;toString(): String&lt;/div&gt;&lt;div&gt;&lt;br&gt;&lt;div&gt;&lt;span class=&quot;hljs-addition&quot;&gt;&lt;br&gt;&lt;/span&gt;&lt;/div&gt;&lt;/div&gt;" style="text;whiteSpace=wrap;html=1;" parent="zkfFHV4jXpPFQw0GAbJ--13" vertex="1">
          <mxGeometry y="210" width="250" height="252" as="geometry" />
        </mxCell>
        <mxCell id="zkfFHV4jXpPFQw0GAbJ--17" value="Chef" style="swimlane;fontStyle=0;align=center;verticalAlign=top;childLayout=stackLayout;horizontal=1;startSize=26;horizontalStack=0;resizeParent=1;resizeLast=0;collapsible=1;marginBottom=0;rounded=0;shadow=0;strokeWidth=1;" parent="WIyWlLk6GJQsqaUBKTNV-1" vertex="1">
          <mxGeometry x="560" y="38" width="260" height="342" as="geometry">
            <mxRectangle x="550" y="140" width="160" height="26" as="alternateBounds" />
          </mxGeometry>
        </mxCell>
        <mxCell id="zkfFHV4jXpPFQw0GAbJ--18" value="- id: int&#xa;" style="text;align=left;verticalAlign=top;spacingLeft=4;spacingRight=4;overflow=hidden;rotatable=0;points=[[0,0.5],[1,0.5]];portConstraint=eastwest;" parent="zkfFHV4jXpPFQw0GAbJ--17" vertex="1">
          <mxGeometry y="26" width="260" height="26" as="geometry" />
        </mxCell>
        <mxCell id="zkfFHV4jXpPFQw0GAbJ--19" value="- nombre: String" style="text;align=left;verticalAlign=top;spacingLeft=4;spacingRight=4;overflow=hidden;rotatable=0;points=[[0,0.5],[1,0.5]];portConstraint=eastwest;rounded=0;shadow=0;html=0;" parent="zkfFHV4jXpPFQw0GAbJ--17" vertex="1">
          <mxGeometry y="52" width="260" height="26" as="geometry" />
        </mxCell>
        <mxCell id="zkfFHV4jXpPFQw0GAbJ--20" value="- especialidad: String" style="text;align=left;verticalAlign=top;spacingLeft=4;spacingRight=4;overflow=hidden;rotatable=0;points=[[0,0.5],[1,0.5]];portConstraint=eastwest;rounded=0;shadow=0;html=0;" parent="zkfFHV4jXpPFQw0GAbJ--17" vertex="1">
          <mxGeometry y="78" width="260" height="26" as="geometry" />
        </mxCell>
        <mxCell id="zkfFHV4jXpPFQw0GAbJ--21" value="- eventos: List&lt;Evento)" style="text;align=left;verticalAlign=top;spacingLeft=4;spacingRight=4;overflow=hidden;rotatable=0;points=[[0,0.5],[1,0.5]];portConstraint=eastwest;rounded=0;shadow=0;html=0;" parent="zkfFHV4jXpPFQw0GAbJ--17" vertex="1">
          <mxGeometry y="104" width="260" height="26" as="geometry" />
        </mxCell>
        <mxCell id="zkfFHV4jXpPFQw0GAbJ--23" value="" style="line;html=1;strokeWidth=1;align=left;verticalAlign=middle;spacingTop=-1;spacingLeft=3;spacingRight=3;rotatable=0;labelPosition=right;points=[];portConstraint=eastwest;" parent="zkfFHV4jXpPFQw0GAbJ--17" vertex="1">
          <mxGeometry y="130" width="260" height="8" as="geometry" />
        </mxCell>
        <mxCell id="hxbj6WoGS98LnYiO9XEM-15" value="&lt;span class=&quot;hljs-addition&quot;&gt;+ agregarEvento(evento: Evento): void&lt;/span&gt;&#xa;&lt;span class=&quot;hljs-addition&quot;&gt;+ getId(): int&lt;/span&gt;&#xa;&lt;span class=&quot;hljs-addition&quot;&gt;+ getNombre(): String&lt;/span&gt;&#xa;&lt;span class=&quot;hljs-addition&quot;&gt;+ getEspecialidad(): String&lt;/span&gt;&#xa;&lt;span class=&quot;hljs-addition&quot;&gt;+ getEventos(): List&amp;lt;Evento&amp;gt;&lt;/span&gt;&#xa;&lt;span class=&quot;hljs-addition&quot;&gt;+ setId(id: int): void&lt;/span&gt;&#xa;&lt;span class=&quot;hljs-addition&quot;&gt;+ setNombre(nombre: String): void&lt;/span&gt;&#xa;&lt;span class=&quot;hljs-addition&quot;&gt;+ setEspecialidad(especialidad: String): void&lt;/span&gt;&#xa;&lt;span class=&quot;hljs-addition&quot;&gt;+ setEventos(eventos: List&amp;lt;Evento&amp;gt;): void&lt;/span&gt;&#xa;&lt;span class=&quot;hljs-addition&quot;&gt;+ toString(): String&lt;/span&gt;" style="text;whiteSpace=wrap;html=1;" parent="zkfFHV4jXpPFQw0GAbJ--17" vertex="1">
          <mxGeometry y="138" width="260" height="170" as="geometry" />
        </mxCell>
        <mxCell id="iKRrWYN__uAXc4BmLFhj-0" value="&lt;font style=&quot;vertical-align: inherit;&quot;&gt;&lt;font style=&quot;vertical-align: inherit;&quot;&gt;Clases Principales:&lt;/font&gt;&lt;/font&gt;" style="text;html=1;align=center;verticalAlign=middle;resizable=0;points=[];autosize=1;strokeColor=none;fillColor=none;" parent="WIyWlLk6GJQsqaUBKTNV-1" vertex="1">
          <mxGeometry x="235" y="8" width="130" height="30" as="geometry" />
        </mxCell>
        <mxCell id="hxbj6WoGS98LnYiO9XEM-19" value="Evento" style="swimlane;fontStyle=0;align=center;verticalAlign=top;childLayout=stackLayout;horizontal=1;startSize=26;horizontalStack=0;resizeParent=1;resizeLast=0;collapsible=1;marginBottom=0;rounded=0;shadow=0;strokeWidth=1;" parent="WIyWlLk6GJQsqaUBKTNV-1" vertex="1">
          <mxGeometry x="10" y="40" width="250" height="770" as="geometry">
            <mxRectangle x="340" y="380" width="170" height="26" as="alternateBounds" />
          </mxGeometry>
        </mxCell>
        <mxCell id="hxbj6WoGS98LnYiO9XEM-20" value="- id: int" style="text;align=left;verticalAlign=top;spacingLeft=4;spacingRight=4;overflow=hidden;rotatable=0;points=[[0,0.5],[1,0.5]];portConstraint=eastwest;" parent="hxbj6WoGS98LnYiO9XEM-19" vertex="1">
          <mxGeometry y="26" width="250" height="26" as="geometry" />
        </mxCell>
        <mxCell id="hxbj6WoGS98LnYiO9XEM-21" value="&lt;font style=&quot;vertical-align: inherit;&quot;&gt;&lt;font style=&quot;vertical-align: inherit;&quot;&gt;-&amp;nbsp;nombre: String&lt;/font&gt;&lt;/font&gt;" style="text;strokeColor=none;fillColor=none;spacingLeft=4;spacingRight=4;overflow=hidden;rotatable=0;points=[[0,0.5],[1,0.5]];portConstraint=eastwest;fontSize=12;whiteSpace=wrap;html=1;" parent="hxbj6WoGS98LnYiO9XEM-19" vertex="1">
          <mxGeometry y="52" width="250" height="28" as="geometry" />
        </mxCell>
        <mxCell id="hxbj6WoGS98LnYiO9XEM-22" value="&lt;font style=&quot;vertical-align: inherit;&quot;&gt;&lt;font style=&quot;vertical-align: inherit;&quot;&gt;-&amp;nbsp;descripcion: String&lt;/font&gt;&lt;/font&gt;" style="text;strokeColor=none;fillColor=none;spacingLeft=4;spacingRight=4;overflow=hidden;rotatable=0;points=[[0,0.5],[1,0.5]];portConstraint=eastwest;fontSize=12;whiteSpace=wrap;html=1;" parent="hxbj6WoGS98LnYiO9XEM-19" vertex="1">
          <mxGeometry y="80" width="250" height="30" as="geometry" />
        </mxCell>
        <mxCell id="hxbj6WoGS98LnYiO9XEM-23" value="&lt;font style=&quot;vertical-align: inherit;&quot;&gt;&lt;font style=&quot;vertical-align: inherit;&quot;&gt;-&amp;nbsp;fechaHora: LocalDateTime&lt;/font&gt;&lt;/font&gt;" style="text;strokeColor=none;fillColor=none;spacingLeft=4;spacingRight=4;overflow=hidden;rotatable=0;points=[[0,0.5],[1,0.5]];portConstraint=eastwest;fontSize=12;whiteSpace=wrap;html=1;" parent="hxbj6WoGS98LnYiO9XEM-19" vertex="1">
          <mxGeometry y="110" width="250" height="30" as="geometry" />
        </mxCell>
        <mxCell id="hxbj6WoGS98LnYiO9XEM-24" value="&lt;font style=&quot;vertical-align: inherit;&quot;&gt;&lt;font style=&quot;vertical-align: inherit;&quot;&gt;-&amp;nbsp;ubicacion: String&lt;/font&gt;&lt;/font&gt;" style="text;strokeColor=none;fillColor=none;spacingLeft=4;spacingRight=4;overflow=hidden;rotatable=0;points=[[0,0.5],[1,0.5]];portConstraint=eastwest;fontSize=12;whiteSpace=wrap;html=1;" parent="hxbj6WoGS98LnYiO9XEM-19" vertex="1">
          <mxGeometry y="140" width="250" height="30" as="geometry" />
        </mxCell>
        <mxCell id="hxbj6WoGS98LnYiO9XEM-26" value="-&amp;nbsp;capacidad: int" style="text;strokeColor=none;fillColor=none;spacingLeft=4;spacingRight=4;overflow=hidden;rotatable=0;points=[[0,0.5],[1,0.5]];portConstraint=eastwest;fontSize=12;whiteSpace=wrap;html=1;" parent="hxbj6WoGS98LnYiO9XEM-19" vertex="1">
          <mxGeometry y="170" width="250" height="30" as="geometry" />
        </mxCell>
        <mxCell id="hxbj6WoGS98LnYiO9XEM-27" value="-&amp;nbsp;chef: Chef" style="text;strokeColor=none;fillColor=none;spacingLeft=4;spacingRight=4;overflow=hidden;rotatable=0;points=[[0,0.5],[1,0.5]];portConstraint=eastwest;fontSize=12;whiteSpace=wrap;html=1;" parent="hxbj6WoGS98LnYiO9XEM-19" vertex="1">
          <mxGeometry y="200" width="250" height="30" as="geometry" />
        </mxCell>
        <mxCell id="hxbj6WoGS98LnYiO9XEM-28" value="- participantes: List&amp;lt;Participante&amp;gt;" style="text;strokeColor=none;fillColor=none;spacingLeft=4;spacingRight=4;overflow=hidden;rotatable=0;points=[[0,0.5],[1,0.5]];portConstraint=eastwest;fontSize=12;whiteSpace=wrap;html=1;" parent="hxbj6WoGS98LnYiO9XEM-19" vertex="1">
          <mxGeometry y="230" width="250" height="30" as="geometry" />
        </mxCell>
        <mxCell id="hxbj6WoGS98LnYiO9XEM-25" value="" style="line;html=1;strokeWidth=1;align=left;verticalAlign=middle;spacingTop=-1;spacingLeft=3;spacingRight=3;rotatable=0;labelPosition=right;points=[];portConstraint=eastwest;" parent="hxbj6WoGS98LnYiO9XEM-19" vertex="1">
          <mxGeometry y="260" width="250" height="70" as="geometry" />
        </mxCell>
        <mxCell id="hxbj6WoGS98LnYiO9XEM-32" value="&lt;span class=&quot;hljs-addition&quot;&gt;+&amp;nbsp;agregarParticipante(participante: Participante): boolean&lt;/span&gt;&lt;br&gt;&lt;span class=&quot;hljs-addition&quot;&gt;+&amp;nbsp;getId(): int&lt;/span&gt;&lt;br&gt;&lt;span class=&quot;hljs-addition&quot;&gt;+&amp;nbsp;getNombre(): String&lt;/span&gt;&lt;br&gt;&lt;span class=&quot;hljs-addition&quot;&gt;+&amp;nbsp;getDescripcion(): String&lt;/span&gt;&lt;br&gt;&lt;span class=&quot;hljs-addition&quot;&gt;+&amp;nbsp;getFechaHora(): LocalDateTime&lt;/span&gt;&lt;br&gt;&lt;span class=&quot;hljs-addition&quot;&gt;+&amp;nbsp;getUbicacion(): String&lt;/span&gt;&lt;br&gt;&lt;span class=&quot;hljs-addition&quot;&gt;+&amp;nbsp;getCapacidad(): int&lt;/span&gt;&lt;br&gt;&lt;span class=&quot;hljs-addition&quot;&gt;+&amp;nbsp;getChef(): Chef&lt;/span&gt;&lt;br&gt;&lt;span class=&quot;hljs-addition&quot;&gt;+&amp;nbsp;getParticipantes(): List&amp;lt;Participante&amp;gt;&lt;/span&gt;&lt;br&gt;&lt;span class=&quot;hljs-addition&quot;&gt;+&amp;nbsp;setId(id: int): void&lt;/span&gt;&lt;div&gt;+&amp;nbsp;setNombre(nombre: String): void&lt;/div&gt;&lt;div&gt;+&amp;nbsp;setDescripcion(descripcion: String): void&lt;/div&gt;&lt;div&gt;+&amp;nbsp;setFechaHora(fechaHora: LocalDateTime): void&lt;/div&gt;&lt;div&gt;+&amp;nbsp;setUbicacion(ubicacion: String): void&lt;/div&gt;&lt;div&gt;&lt;br&gt;&lt;div&gt;&lt;span class=&quot;hljs-addition&quot;&gt;+&amp;nbsp;setCapacidad(capacidad: int): void&lt;/span&gt;&lt;/div&gt;&lt;/div&gt;&lt;div&gt;&lt;span class=&quot;hljs-addition&quot;&gt;+&amp;nbsp;setChef(chef: Chef): void&lt;/span&gt;&lt;/div&gt;&lt;div&gt;&lt;span class=&quot;hljs-addition&quot;&gt;+&amp;nbsp;setParticipantes(participantes: List&amp;lt;Participante&amp;gt;): void&lt;/span&gt;&lt;/div&gt;&lt;div&gt;&lt;span class=&quot;hljs-addition&quot;&gt;+&amp;nbsp;toString(): String&lt;/span&gt;&lt;/div&gt;&lt;div&gt;&lt;span class=&quot;hljs-addition&quot;&gt;&lt;br&gt;&lt;/span&gt;&lt;/div&gt;" style="text;whiteSpace=wrap;html=1;" parent="hxbj6WoGS98LnYiO9XEM-19" vertex="1">
          <mxGeometry y="330" width="250" height="340" as="geometry" />
        </mxCell>
        <mxCell id="hxbj6WoGS98LnYiO9XEM-36" value="EventoService" style="swimlane;fontStyle=0;align=center;verticalAlign=top;childLayout=stackLayout;horizontal=1;startSize=26;horizontalStack=0;resizeParent=1;resizeLast=0;collapsible=1;marginBottom=0;rounded=0;shadow=0;strokeWidth=1;" parent="WIyWlLk6GJQsqaUBKTNV-1" vertex="1">
          <mxGeometry x="285" y="180" width="250" height="324" as="geometry">
            <mxRectangle x="340" y="380" width="170" height="26" as="alternateBounds" />
          </mxGeometry>
        </mxCell>
        <mxCell id="hxbj6WoGS98LnYiO9XEM-37" value="- eventos: List&lt;Evento&gt;" style="text;align=left;verticalAlign=top;spacingLeft=4;spacingRight=4;overflow=hidden;rotatable=0;points=[[0,0.5],[1,0.5]];portConstraint=eastwest;" parent="hxbj6WoGS98LnYiO9XEM-36" vertex="1">
          <mxGeometry y="26" width="250" height="26" as="geometry" />
        </mxCell>
        <mxCell id="hxbj6WoGS98LnYiO9XEM-42" value="" style="line;html=1;strokeWidth=1;align=left;verticalAlign=middle;spacingTop=-1;spacingLeft=3;spacingRight=3;rotatable=0;labelPosition=right;points=[];portConstraint=eastwest;" parent="hxbj6WoGS98LnYiO9XEM-36" vertex="1">
          <mxGeometry y="52" width="250" height="20" as="geometry" />
        </mxCell>
        <mxCell id="hxbj6WoGS98LnYiO9XEM-43" value="&lt;span class=&quot;hljs-addition&quot;&gt;+&amp;nbsp;crearEvento(id: int, nombre: String, descripcion: String, fechaHora: LocalDateTime, ubicacion: String, capacidad: int, chef: Chef): Evento&lt;/span&gt;&lt;br&gt;&lt;span class=&quot;hljs-addition&quot;&gt;+&amp;nbsp;inscribirParticipante(evento: Evento, participante: Participante): boolean&lt;/span&gt;&lt;br&gt;&lt;span class=&quot;hljs-addition&quot;&gt;+&amp;nbsp;listarEventosDisponiblesDesde(fecha: LocalDateTime): List&amp;lt;Evento&amp;gt;&lt;/span&gt;&lt;br&gt;&lt;span class=&quot;hljs-addition&quot;&gt;+&amp;nbsp;listarEventosCompletosHasta(fecha: LocalDateTime): List&amp;lt;Evento&amp;gt;&lt;/span&gt;&lt;br&gt;&lt;span class=&quot;hljs-addition&quot;&gt;+&amp;nbsp;exportarEventosCompletos(archivoRuta: String, fecha: LocalDateTime): void&lt;/span&gt;&lt;br&gt;&lt;div&gt;&lt;br&gt;&lt;div&gt;&lt;span class=&quot;hljs-addition&quot;&gt;&lt;br&gt;&lt;/span&gt;&lt;/div&gt;&lt;/div&gt;" style="text;whiteSpace=wrap;html=1;" parent="hxbj6WoGS98LnYiO9XEM-36" vertex="1">
          <mxGeometry y="72" width="250" height="252" as="geometry" />
        </mxCell>
        <mxCell id="hxbj6WoGS98LnYiO9XEM-44" value="ReseñaService" style="swimlane;fontStyle=0;align=center;verticalAlign=top;childLayout=stackLayout;horizontal=1;startSize=26;horizontalStack=0;resizeParent=1;resizeLast=0;collapsible=1;marginBottom=0;rounded=0;shadow=0;strokeWidth=1;" parent="WIyWlLk6GJQsqaUBKTNV-1" vertex="1">
          <mxGeometry x="290" y="530" width="250" height="180" as="geometry">
            <mxRectangle x="340" y="380" width="170" height="26" as="alternateBounds" />
          </mxGeometry>
        </mxCell>
        <mxCell id="hxbj6WoGS98LnYiO9XEM-45" value="- reseñas: List&lt;Reseña&gt;" style="text;align=left;verticalAlign=top;spacingLeft=4;spacingRight=4;overflow=hidden;rotatable=0;points=[[0,0.5],[1,0.5]];portConstraint=eastwest;" parent="hxbj6WoGS98LnYiO9XEM-44" vertex="1">
          <mxGeometry y="26" width="250" height="26" as="geometry" />
        </mxCell>
        <mxCell id="hxbj6WoGS98LnYiO9XEM-46" value="" style="line;html=1;strokeWidth=1;align=left;verticalAlign=middle;spacingTop=-1;spacingLeft=3;spacingRight=3;rotatable=0;labelPosition=right;points=[];portConstraint=eastwest;" parent="hxbj6WoGS98LnYiO9XEM-44" vertex="1">
          <mxGeometry y="52" width="250" height="20" as="geometry" />
        </mxCell>
        <mxCell id="hxbj6WoGS98LnYiO9XEM-47" value="&lt;span class=&quot;hljs-addition&quot;&gt;+&amp;nbsp;crearReseña(id: int, evento: Evento, participante: Participante, calificacion: int, comentario: String): Reseña&lt;/span&gt;&lt;br&gt;&lt;span class=&quot;hljs-addition&quot;&gt;+&amp;nbsp;obtenerReseñasPorEvento(evento: Evento): List&amp;lt;Reseña&amp;gt;&lt;/span&gt;&lt;br&gt;&lt;div&gt;&lt;br&gt;&lt;div&gt;&lt;span class=&quot;hljs-addition&quot;&gt;&lt;br&gt;&lt;/span&gt;&lt;/div&gt;&lt;/div&gt;" style="text;whiteSpace=wrap;html=1;" parent="hxbj6WoGS98LnYiO9XEM-44" vertex="1">
          <mxGeometry y="72" width="250" height="108" as="geometry" />
        </mxCell>
        <mxCell id="hxbj6WoGS98LnYiO9XEM-48" value="FileExporter" style="swimlane;fontStyle=0;align=center;verticalAlign=top;childLayout=stackLayout;horizontal=1;startSize=26;horizontalStack=0;resizeParent=1;resizeLast=0;collapsible=1;marginBottom=0;rounded=0;shadow=0;strokeWidth=1;" parent="WIyWlLk6GJQsqaUBKTNV-1" vertex="1">
          <mxGeometry x="175" y="1040" width="250" height="170" as="geometry">
            <mxRectangle x="340" y="380" width="170" height="26" as="alternateBounds" />
          </mxGeometry>
        </mxCell>
        <mxCell id="hxbj6WoGS98LnYiO9XEM-50" value="" style="line;html=1;strokeWidth=1;align=left;verticalAlign=middle;spacingTop=-1;spacingLeft=3;spacingRight=3;rotatable=0;labelPosition=right;points=[];portConstraint=eastwest;" parent="hxbj6WoGS98LnYiO9XEM-48" vertex="1">
          <mxGeometry y="26" width="250" height="54" as="geometry" />
        </mxCell>
        <mxCell id="hxbj6WoGS98LnYiO9XEM-51" value="&lt;span class=&quot;hljs-addition&quot;&gt;+&amp;nbsp;&lt;/span&gt;exportarEventosACSV(eventos: List&amp;lt;Evento&amp;gt;, archivoRuta: String): void&lt;div&gt;&lt;div&gt;&lt;span class=&quot;hljs-addition&quot;&gt;&lt;br&gt;&lt;/span&gt;&lt;/div&gt;&lt;/div&gt;" style="text;whiteSpace=wrap;html=1;" parent="hxbj6WoGS98LnYiO9XEM-48" vertex="1">
          <mxGeometry y="80" width="250" height="60" as="geometry" />
        </mxCell>
        <mxCell id="hxbj6WoGS98LnYiO9XEM-54" value="*" style="text;html=1;align=center;verticalAlign=middle;resizable=0;points=[];autosize=1;strokeColor=none;fillColor=none;" parent="WIyWlLk6GJQsqaUBKTNV-1" vertex="1">
          <mxGeometry x="280" y="120" width="30" height="30" as="geometry" />
        </mxCell>
        <mxCell id="hxbj6WoGS98LnYiO9XEM-55" value="1" style="text;html=1;align=center;verticalAlign=middle;resizable=0;points=[];autosize=1;strokeColor=none;fillColor=none;" parent="WIyWlLk6GJQsqaUBKTNV-1" vertex="1">
          <mxGeometry x="535" y="108" width="30" height="30" as="geometry" />
        </mxCell>
        <mxCell id="hxbj6WoGS98LnYiO9XEM-57" style="edgeStyle=orthogonalEdgeStyle;rounded=0;orthogonalLoop=1;jettySize=auto;html=1;exitX=0;exitY=0.5;exitDx=0;exitDy=0;entryX=1.012;entryY=0.167;entryDx=0;entryDy=0;entryPerimeter=0;" parent="WIyWlLk6GJQsqaUBKTNV-1" source="zkfFHV4jXpPFQw0GAbJ--21" target="hxbj6WoGS98LnYiO9XEM-23" edge="1">
          <mxGeometry relative="1" as="geometry" />
        </mxCell>
        <mxCell id="hxbj6WoGS98LnYiO9XEM-58" style="edgeStyle=orthogonalEdgeStyle;rounded=0;orthogonalLoop=1;jettySize=auto;html=1;exitX=0.5;exitY=1;exitDx=0;exitDy=0;entryX=0.46;entryY=0.006;entryDx=0;entryDy=0;entryPerimeter=0;" parent="WIyWlLk6GJQsqaUBKTNV-1" source="hxbj6WoGS98LnYiO9XEM-19" target="zkfFHV4jXpPFQw0GAbJ--6" edge="1">
          <mxGeometry relative="1" as="geometry" />
        </mxCell>
        <mxCell id="hxbj6WoGS98LnYiO9XEM-59" value="*" style="text;html=1;align=center;verticalAlign=middle;resizable=0;points=[];autosize=1;strokeColor=none;fillColor=none;" parent="WIyWlLk6GJQsqaUBKTNV-1" vertex="1">
          <mxGeometry x="90" y="810" width="30" height="30" as="geometry" />
        </mxCell>
        <mxCell id="hxbj6WoGS98LnYiO9XEM-60" value="*" style="text;html=1;align=center;verticalAlign=middle;resizable=0;points=[];autosize=1;strokeColor=none;fillColor=none;" parent="WIyWlLk6GJQsqaUBKTNV-1" vertex="1">
          <mxGeometry x="140" y="1260" width="30" height="30" as="geometry" />
        </mxCell>
        <mxCell id="hxbj6WoGS98LnYiO9XEM-62" value="1" style="text;html=1;align=center;verticalAlign=middle;resizable=0;points=[];autosize=1;strokeColor=none;fillColor=none;" parent="WIyWlLk6GJQsqaUBKTNV-1" vertex="1">
          <mxGeometry x="200" y="810" width="30" height="30" as="geometry" />
        </mxCell>
        <mxCell id="hxbj6WoGS98LnYiO9XEM-66" value="" style="strokeWidth=2;html=1;shape=mxgraph.flowchart.annotation_2;align=left;labelPosition=right;pointerEvents=1;" parent="WIyWlLk6GJQsqaUBKTNV-1" vertex="1">
          <mxGeometry x="260" y="440" width="30" height="160" as="geometry" />
        </mxCell>
        <mxCell id="hxbj6WoGS98LnYiO9XEM-68" value="&lt;h3 style=&quot;text-align: justify;&quot;&gt;&lt;strong&gt;Descripción de la Solución&lt;/strong&gt;&lt;/h3&gt;&lt;p style=&quot;text-align: justify;&quot;&gt;La aplicación se desarrollará utilizando Java y Maven para gestionar las dependencias y la estructura del proyecto.&amp;nbsp;&lt;/p&gt;&lt;p style=&quot;text-align: justify;&quot;&gt;La lógica principal estará distribuida en clases, cada una representando una entidad del sistema. Se implementarán métodos para gestionar eventos, participantes, chefs, y reseñas.&lt;/p&gt;&lt;p style=&quot;text-align: justify;&quot;&gt;Las funcionalidades solicitadas serán manejadas a través de un conjunto de servicios que interactúan con las clases de modelo,&amp;nbsp;&lt;/p&gt;&lt;p style=&quot;text-align: justify;&quot;&gt;y se realizarán operaciones de CRUD (Crear, Leer, Actualizar, Eliminar) para cumplir con los requisitos.&lt;/p&gt;" style="text;html=1;align=center;verticalAlign=middle;resizable=0;points=[];autosize=1;strokeColor=none;fillColor=none;" parent="WIyWlLk6GJQsqaUBKTNV-1" vertex="1">
          <mxGeometry x="20" y="1880" width="990" height="160" as="geometry" />
        </mxCell>
        <mxCell id="hxbj6WoGS98LnYiO9XEM-71" value="" style="edgeStyle=orthogonalEdgeStyle;rounded=0;orthogonalLoop=1;jettySize=auto;html=1;exitX=0.75;exitY=1;exitDx=0;exitDy=0;entryX=0.004;entryY=0.107;entryDx=0;entryDy=0;entryPerimeter=0;" parent="WIyWlLk6GJQsqaUBKTNV-1" source="hxbj6WoGS98LnYiO9XEM-19" target="hxbj6WoGS98LnYiO9XEM-34" edge="1">
          <mxGeometry relative="1" as="geometry">
            <mxPoint x="198" y="810" as="sourcePoint" />
            <mxPoint x="569" y="828" as="targetPoint" />
            <Array as="points">
              <mxPoint x="198" y="980" />
              <mxPoint x="560" y="980" />
              <mxPoint x="560" y="837" />
            </Array>
          </mxGeometry>
        </mxCell>
        <mxCell id="hxbj6WoGS98LnYiO9XEM-63" value="*" style="text;html=1;align=center;verticalAlign=middle;resizable=0;points=[];autosize=1;strokeColor=none;fillColor=none;" parent="WIyWlLk6GJQsqaUBKTNV-1" vertex="1">
          <mxGeometry x="540" y="816" width="30" height="30" as="geometry" />
        </mxCell>
        <mxCell id="auFG3rcPVropUUpY-nIU-0" value="ParticipanteService" style="swimlane;fontStyle=0;align=center;verticalAlign=top;childLayout=stackLayout;horizontal=1;startSize=26;horizontalStack=0;resizeParent=1;resizeLast=0;collapsible=1;marginBottom=0;rounded=0;shadow=0;strokeWidth=1;" vertex="1" parent="WIyWlLk6GJQsqaUBKTNV-1">
          <mxGeometry x="290" y="741" width="250" height="180" as="geometry">
            <mxRectangle x="340" y="380" width="170" height="26" as="alternateBounds" />
          </mxGeometry>
        </mxCell>
        <mxCell id="auFG3rcPVropUUpY-nIU-1" value="- participantes: List&lt;Participante&gt;" style="text;align=left;verticalAlign=top;spacingLeft=4;spacingRight=4;overflow=hidden;rotatable=0;points=[[0,0.5],[1,0.5]];portConstraint=eastwest;" vertex="1" parent="auFG3rcPVropUUpY-nIU-0">
          <mxGeometry y="26" width="250" height="26" as="geometry" />
        </mxCell>
        <mxCell id="auFG3rcPVropUUpY-nIU-2" value="" style="line;html=1;strokeWidth=1;align=left;verticalAlign=middle;spacingTop=-1;spacingLeft=3;spacingRight=3;rotatable=0;labelPosition=right;points=[];portConstraint=eastwest;" vertex="1" parent="auFG3rcPVropUUpY-nIU-0">
          <mxGeometry y="52" width="250" height="20" as="geometry" />
        </mxCell>
        <mxCell id="auFG3rcPVropUUpY-nIU-3" value="&lt;span class=&quot;hljs-addition&quot;&gt;&amp;nbsp;+inscribir ParticipanteEnEvento(participante: Participante, evento: Evento): void&lt;/span&gt;&lt;div&gt;&lt;span class=&quot;hljs-addition&quot;&gt;+obtener ParticipantePorId(id: String): Participante&lt;/span&gt;&lt;br&gt;&lt;div&gt;&lt;br&gt;&lt;div&gt;&lt;span class=&quot;hljs-addition&quot;&gt;&lt;br&gt;&lt;/span&gt;&lt;/div&gt;&lt;/div&gt;&lt;/div&gt;" style="text;whiteSpace=wrap;html=1;" vertex="1" parent="auFG3rcPVropUUpY-nIU-0">
          <mxGeometry y="72" width="250" height="108" as="geometry" />
        </mxCell>
        <mxCell id="auFG3rcPVropUUpY-nIU-4" style="edgeStyle=orthogonalEdgeStyle;rounded=0;orthogonalLoop=1;jettySize=auto;html=1;exitX=1;exitY=1;exitDx=0;exitDy=0;entryX=0.34;entryY=-0.018;entryDx=0;entryDy=0;entryPerimeter=0;" edge="1" parent="WIyWlLk6GJQsqaUBKTNV-1" source="hxbj6WoGS98LnYiO9XEM-32" target="hxbj6WoGS98LnYiO9XEM-48">
          <mxGeometry relative="1" as="geometry" />
        </mxCell>
        <mxCell id="auFG3rcPVropUUpY-nIU-5" value="ChefService" style="swimlane;fontStyle=0;align=center;verticalAlign=top;childLayout=stackLayout;horizontal=1;startSize=26;horizontalStack=0;resizeParent=1;resizeLast=0;collapsible=1;marginBottom=0;rounded=0;shadow=0;strokeWidth=1;" vertex="1" parent="WIyWlLk6GJQsqaUBKTNV-1">
          <mxGeometry x="490" y="1110" width="250" height="170" as="geometry">
            <mxRectangle x="340" y="380" width="170" height="26" as="alternateBounds" />
          </mxGeometry>
        </mxCell>
        <mxCell id="auFG3rcPVropUUpY-nIU-6" value="" style="line;html=1;strokeWidth=1;align=left;verticalAlign=middle;spacingTop=-1;spacingLeft=3;spacingRight=3;rotatable=0;labelPosition=right;points=[];portConstraint=eastwest;" vertex="1" parent="auFG3rcPVropUUpY-nIU-5">
          <mxGeometry y="26" width="250" height="54" as="geometry" />
        </mxCell>
        <mxCell id="auFG3rcPVropUUpY-nIU-7" value="&lt;div&gt;&lt;div&gt;&lt;span class=&quot;hljs-addition&quot;&gt;- chefs: List&amp;lt;Chef&amp;gt;&lt;br&gt;&lt;/span&gt;&lt;/div&gt;&lt;/div&gt;" style="text;whiteSpace=wrap;html=1;" vertex="1" parent="auFG3rcPVropUUpY-nIU-5">
          <mxGeometry y="80" width="250" height="60" as="geometry" />
        </mxCell>
      </root>
    </mxGraphModel>
  </diagram>
</mxfile>
